<?xml version="1.0" encoding="UTF-8"?>
<svg version="1.1" xmlns="http://www.w3.org/2000/svg" width="500" height="500">
<path d="M0 0 C4.95805724 -0.07549162 9.91576299 -0.12921778 14.87426758 -0.16479492 C16.55271243 -0.17966256 18.23112005 -0.19996277 19.90942383 -0.22631836 C44.61127285 -0.60384137 65.48786183 3.97195059 84.56640625 20.484375 C86 22 86 22 86 24 C86.66 24 87.32 24 88 24 C98.59448984 35.77520106 101.35104184 51.83076747 101.21484375 67.0546875 C100.25246285 84.72750037 93.29688898 98.59815697 80.3125 110.4375 C72.81837161 117 72.81837161 117 69 117 C73.65247703 125.26347632 73.65247703 125.26347632 78.9375 133.125 C81 136 81 136 81 138 C81.66 138 82.32 138 83 138 C84.12915039 139.42114258 84.12915039 139.42114258 85.34765625 141.39453125 C85.78787109 142.10287109 86.22808594 142.81121094 86.68164062 143.54101562 C87.13732422 144.29060547 87.59300781 145.04019531 88.0625 145.8125 C88.52205078 146.55048828 88.98160156 147.28847656 89.45507812 148.04882812 C91.29770549 151.03870073 92.88435075 153.65305226 94 157 C94.66 157 95.32 157 96 157 C97.69140625 159.265625 97.69140625 159.265625 99.5625 162.25 C100.18253906 163.22453125 100.80257812 164.1990625 101.44140625 165.203125 C102.78223581 167.60922516 103.41840135 169.36323136 104 172 C96.58076395 172.22866621 89.16243932 172.38599629 81.74047852 172.49438477 C79.21734666 172.53957664 76.69444962 172.60094486 74.17211914 172.67895508 C70.53993825 172.78845728 66.91087697 172.83923896 63.27734375 172.87890625 C61.59257179 172.9485836 61.59257179 172.9485836 59.87376404 173.01966858 C52.18614621 173.024596 52.18614621 173.024596 48.78665161 170.08810425 C46.98441321 167.80108551 45.47424965 165.50830927 44 163 C43.02717651 161.55819971 42.04891215 160.12003785 41.0625 158.6875 C40.039069 157.12670022 39.01841182 155.56407938 38 154 C36.07629501 151.07062712 34.14249848 148.15801633 32.140625 145.28125 C30.57589619 142.88276058 29.33885752 140.70685348 28.109375 138.15625 C25.97461552 134.09181933 23.99042392 130.46340603 20 128 C12.20367464 126.02298705 3.96707909 126.49194886 -4 127 C-3.99476318 128.29212402 -3.98952637 129.58424805 -3.98413086 130.91552734 C-3.96606633 135.69758413 -3.95456264 140.47963789 -3.94506836 145.26171875 C-3.94003148 147.33366401 -3.93320175 149.4056057 -3.92456055 151.47753906 C-3.91246679 154.45118082 -3.90676533 157.42477569 -3.90234375 160.3984375 C-3.89718246 161.32868744 -3.89202118 162.25893738 -3.88670349 163.21737671 C-3.88662796 164.07811798 -3.88655243 164.93885925 -3.88647461 165.82568359 C-3.884254 166.58513275 -3.88203339 167.34458191 -3.87974548 168.12704468 C-4 170 -4 170 -5 172 C-21.17 172 -37.34 172 -54 172 C-54.92466909 169.22599272 -55.13567736 167.51885999 -55.16113281 164.65209961 C-55.17074036 163.7778685 -55.1803479 162.90363739 -55.19024658 162.00291443 C-55.19449646 161.0622261 -55.19874634 160.12153778 -55.203125 159.15234375 C-55.21167511 157.70088707 -55.21167511 157.70088707 -55.22039795 156.22010803 C-55.22984199 154.17498874 -55.23637956 152.12985426 -55.24023438 150.0847168 C-55.24997305 146.94618563 -55.28101537 143.80830025 -55.3125 140.66992188 C-55.31902681 138.68489973 -55.32427855 136.6998729 -55.328125 134.71484375 C-55.3404718 133.7721312 -55.3528186 132.82941864 -55.36553955 131.85813904 C-55.36253845 130.98706009 -55.35953735 130.11598114 -55.35644531 129.21850586 C-55.36009094 128.45034042 -55.36373657 127.68217499 -55.36749268 126.89073181 C-55.1855838 125.95481956 -55.1855838 125.95481956 -55 125 C-52 123 -52 123 -49 123 C-48.73960937 122.44570313 -48.47921875 121.89140625 -48.2109375 121.3203125 C-46.84709071 118.70700607 -45.26169072 116.32646252 -43.625 113.875 C-37.95964495 104.93032118 -35.49593091 96.86105851 -34.21386719 86.41967773 C-33.33971243 80.03210401 -31.23091608 75.92670025 -26.25 71.625 C-25.5075 71.08875 -24.765 70.5525 -24 70 C-19.86544915 71.61752467 -15.78377592 73.33380422 -11.75 75.1875 C-10.79480469 75.58678711 -10.79480469 75.58678711 -9.8203125 75.99414062 C-7.984375 76.85546875 -7.984375 76.85546875 -5 79 C-4.26857907 81.91638598 -4 84.02438721 -4 87 C-2.948125 86.95875 -1.89625 86.9175 -0.8125 86.875 C3 88 3 88 4.4375 90.1875 C5.25970907 91.9552495 6.03628878 93.74506947 6.76171875 95.5546875 C8.1602006 98.31635828 9.36109532 99.42565346 12 101 C17.25363644 102.28862781 20.98759401 102.04209133 26 100 C29.89914117 97.09831355 31.35113886 94.33501532 32.9375 89.875 C34.31142272 86.10652627 34.67590303 85.22038594 38.125 82.875 C41 82 41 82 43 82 C43 81.34 43 80.68 43 80 C43.66 80 44.32 80 45 80 C48.23039712 72.38549249 50.73910669 64.77195411 48.27734375 56.6015625 C45.87699075 50.75130944 42.89036919 46.76125061 37.41015625 43.421875 C32.47992608 41.36620056 27.66014513 41.26613029 22.36914062 41.00390625 C20.14505998 40.83012106 18.1404019 40.63146827 16 40 C13.9296875 37.57421875 13.9296875 37.57421875 13 35 C13.3125 32.6875 13.3125 32.6875 14 30 C14.49116323 23.81134325 14.05519263 20.9820938 10 16 C9.25169922 15.29810547 9.25169922 15.29810547 8.48828125 14.58203125 C6.35712333 12.31662717 5.33860085 9.74492186 4.0625 6.9375 C3.07625 4.92458333 3.07625 4.92458333 1.375 3.375 C0.694375 2.694375 0.694375 2.694375 0 2 C0 1.34 0 0.68 0 0 Z " fill="#E06536" transform="translate(244,164)"/>
<path d="M0 0 C5.04424468 0.44508041 7.44443409 2.60980925 11 6 C11 6.66 11 7.32 11 8 C11.66 8 12.32 8 13 8 C13 8.99 13 9.98 13 11 C13.99 11 14.98 11 16 11 C16.66 8.69 17.32 6.38 18 4 C18.99 4 19.98 4 21 4 C22.65 7.63 24.3 11.26 26 15 C26.33 11.7 26.66 8.4 27 5 C31.45814296 7.22907148 33.3484686 9.4066783 35 14 C35.30838908 17.03570498 35.24800423 19.96194816 35 23 C35.99 22.34 36.98 21.68 38 21 C38.99 21 39.98 21 41 21 C42.35384615 27.27692308 42.35384615 27.27692308 40.5625 30.9375 C39.7890625 31.9584375 39.7890625 31.9584375 39 33 C39.5775 33.845625 40.155 34.69125 40.75 35.5625 C43.57768845 40.44850583 44.66410095 45.84484857 45.97265625 51.28125 C46.72202605 53.99379772 47.48730142 56.24900297 48.62109375 58.78125 C50 62 50 62 50 65 C50.66 65 51.32 65 52 65 C61.90911827 84.06620524 61.90911827 84.06620524 60 92 C58.9609375 94.26171875 58.9609375 94.26171875 58 96 C57.34 96 56.68 96 56 96 C56 96.66 56 97.32 56 98 C51.66266785 100.46864029 47.89262491 100.56015741 43 100 C38.73169112 98.23700285 37.03970725 96.0794145 35 92 C34.319375 90.2675 34.319375 90.2675 33.625 88.5 C29.93794516 80.55865111 22.49694661 76.0044356 14.8125 72.375 C8.25366928 69.25366928 8.25366928 69.25366928 6 67 C5.38125 67.495 4.7625 67.99 4.125 68.5 C2 70 2 70 0 70 C0 70.66 0 71.32 0 72 C-0.66 72 -1.32 72 -2 72 C-4.99294903 77.55833392 -6.2079397 82.86680433 -6.8125 89.125 C-8.04561838 99.66894258 -11.9977579 109.86836402 -19 118 C-19.66 118 -20.32 118 -21 118 C-21 118.99 -21 119.98 -21 121 C-22.6875 121.75 -22.6875 121.75 -25 122 C-29.37137863 119.1478546 -31.73836169 115.62224813 -34.1875 111.125 C-34.70086914 110.22587891 -34.70086914 110.22587891 -35.22460938 109.30859375 C-43.11232767 95.1872806 -42.73876402 77.52036509 -38.65625 62.2109375 C-38.4396875 61.48132813 -38.223125 60.75171875 -38 60 C-38.6536261 61.85143394 -39.29751218 63.70630758 -39.9375 65.5625 C-40.29714844 66.59503906 -40.65679687 67.62757813 -41.02734375 68.69140625 C-44.26515929 79.70518041 -44.35821509 93.74286006 -42 105 C-41.34 105.33 -40.68 105.66 -40 106 C-41.98 106.495 -41.98 106.495 -44 107 C-53.34194161 93.29338076 -56.568721 78.93810351 -53.55078125 62.5625 C-52.58315269 57.97981116 -51.33665812 53.48735227 -50 49 C-54.26941128 56.1433192 -57.20585311 62.86338646 -59 71 C-62 70 -62 70 -63.1875 67.9375 C-64.99733874 61.39423686 -63.88351716 55.08584505 -62.3125 48.625 C-62.13750977 47.88838135 -61.96251953 47.1517627 -61.78222656 46.39282227 C-60.29944147 40.49726355 -58.1342328 35.22800308 -55 30 C-54.34 30 -53.68 30 -53 30 C-52.74734375 29.41347656 -52.4946875 28.82695312 -52.234375 28.22265625 C-49.03580353 22.46320319 -42.94671251 18.52735282 -37 16 C-38.65 16 -40.3 16 -42 16 C-42.33 15.01 -42.66 14.02 -43 13 C-30.21018336 6.22139718 -30.21018336 6.22139718 -23 5 C-21.99324219 4.82855469 -20.98648438 4.65710938 -19.94921875 4.48046875 C-17.84692154 4.1305055 -15.74281893 3.79114096 -13.63671875 3.46484375 C-10.90428902 3.04960515 -10.90428902 3.04960515 -8 2 C-6.60560336 1.93334624 -5.20830125 1.91461801 -3.8125 1.9375 C-1.9253125 1.9684375 -1.9253125 1.9684375 0 2 C0 1.34 0 0.68 0 0 Z M-47 43 C-46 45 -46 45 -46 45 Z M25 44 C25.98315865 49.93482007 25.98315865 49.93482007 29.625 54.5 C30.40875 54.995 31.1925 55.49 32 56 C32.66 55.67 33.32 55.34 34 55 C31.51545911 50.21495828 29.52048157 47.13922331 25 44 Z M-36 53 C-35 55 -35 55 -35 55 Z " fill="#DE5F36" transform="translate(215,164)"/>
<path d="M0 0 C0.66 0.33 1.32 0.66 2 1 C1.21625 1.7425 0.4325 2.485 -0.375 3.25 C-3.00612679 5.73654809 -3.00612679 5.73654809 -4.125 8.25 C-4.41375 8.8275 -4.7025 9.405 -5 10 C-5.99 10.33 -6.98 10.66 -8 11 C-12.55454437 17.07272583 -14.29801298 21.40066896 -14 29 C-13.566875 28.505 -13.13375 28.01 -12.6875 27.5 C-11 26 -11 26 -8 26 C-7.71125 25.4225 -7.4225 24.845 -7.125 24.25 C-6.75375 23.5075 -6.3825 22.765 -6 22 C-5.731875 21.278125 -5.46375 20.55625 -5.1875 19.8125 C-4 18 -4 18 -1.375 17.25 C-0.199375 17.12625 -0.199375 17.12625 1 17 C2.0300801 20.09024031 2.37377626 21.78552416 2 25 C0 28.3125 0 28.3125 -2 31 C-1.01 31.33 -0.02 31.66 1 32 C1.66 31.01 2.32 30.02 3 29 C6.125 27.8125 6.125 27.8125 9 27 C9.99 27.99 10.98 28.98 12 30 C11.01 32.31 10.02 34.62 9 37 C9.33 37.33 9.66 37.66 10 38 C10.04092937 40.33297433 10.04241723 42.66705225 10 45 C8.68 45.66 7.36 46.32 6 47 C6 47.99 6 48.98 6 50 C5.51144531 50.70382813 5.02289063 51.40765625 4.51953125 52.1328125 C2.41544819 56.10298466 2.59676932 59.45460119 2.6875 63.875 C2.68427734 64.65230469 2.68105469 65.42960937 2.67773438 66.23046875 C2.72330572 71.16046011 3.5558478 75.25492848 5 80 C4.625 83.4375 4.625 83.4375 4 86 C-2.1107507 76.83387395 -1.31731414 61.46847841 0.67578125 50.94921875 C1.37082885 47.93514976 2.11998799 44.96480235 3 42 C2.3463739 43.85143394 1.70248782 45.70630758 1.0625 47.5625 C0.70285156 48.59503906 0.34320313 49.62757813 -0.02734375 50.69140625 C-3.26515929 61.70518041 -3.35821509 75.74286006 -1 87 C-0.34 87.33 0.32 87.66 1 88 C-0.98 88.495 -0.98 88.495 -3 89 C-12.34194161 75.29338076 -15.568721 60.93810351 -12.55078125 44.5625 C-11.58315269 39.97981116 -10.33665812 35.48735227 -9 31 C-13.26941128 38.1433192 -16.20585311 44.86338646 -18 53 C-21 52 -21 52 -22.1875 49.9375 C-23.99733874 43.39423686 -22.88351716 37.08584505 -21.3125 30.625 C-21.13750977 29.88838135 -20.96251953 29.1517627 -20.78222656 28.39282227 C-19.29944147 22.49726355 -17.1342328 17.22800308 -14 12 C-13.34 12 -12.68 12 -12 12 C-11.7525 11.41605469 -11.505 10.83210937 -11.25 10.23046875 C-9.81544436 7.67068353 -8.23295714 6.20476699 -6 4.3125 C-5.29875 3.71050781 -4.5975 3.10851562 -3.875 2.48828125 C-2 1 -2 1 0 0 Z M-6 25 C-5 27 -5 27 -5 27 Z M5 35 C6 37 6 37 6 37 Z " fill="#F0923C" transform="translate(174,182)"/>
<path d="M0 0 C11.28829296 3.51842898 20.82722989 8.98750531 28.90625 17.75 C28.90625 18.41 28.90625 19.07 28.90625 19.75 C29.56625 19.75 30.22625 19.75 30.90625 19.75 C41.50073984 31.52520106 44.25729184 47.58076747 44.12109375 62.8046875 C43.15871285 80.47750037 36.20313898 94.34815697 23.21875 106.1875 C15.72462161 112.75 15.72462161 112.75 11.90625 112.75 C16.55872703 121.01347632 16.55872703 121.01347632 21.84375 128.875 C23.90625 131.75 23.90625 131.75 23.90625 133.75 C24.56625 133.75 25.22625 133.75 25.90625 133.75 C27.03540039 135.17114258 27.03540039 135.17114258 28.25390625 137.14453125 C28.69412109 137.85287109 29.13433594 138.56121094 29.58789062 139.29101562 C30.04357422 140.04060547 30.49925781 140.79019531 30.96875 141.5625 C31.42830078 142.30048828 31.88785156 143.03847656 32.36132812 143.79882812 C34.20395549 146.78870073 35.79060075 149.40305226 36.90625 152.75 C37.56625 152.75 38.22625 152.75 38.90625 152.75 C40.59765625 155.015625 40.59765625 155.015625 42.46875 158 C43.08878906 158.97453125 43.70882812 159.9490625 44.34765625 160.953125 C45.90625 163.75 45.90625 163.75 46.90625 167.75 C29.41625 167.75 11.92625 167.75 -6.09375 167.75 C-6.09375 167.42 -6.09375 167.09 -6.09375 166.75 C9.74625 166.42 25.58625 166.09 41.90625 165.75 C41.90625 164.76 41.90625 163.77 41.90625 162.75 C40.91625 162.75 39.92625 162.75 38.90625 162.75 C38.6175 161.945625 38.32875 161.14125 38.03125 160.3125 C37.17362432 157.6173532 37.17362432 157.6173532 34.90625 156.75 C34.90625 155.43 34.90625 154.11 34.90625 152.75 C31.93625 151.76 31.93625 151.76 28.90625 150.75 C28.90625 149.1 28.90625 147.45 28.90625 145.75 C28.24625 145.75 27.58625 145.75 26.90625 145.75 C26.90625 144.76 26.90625 143.77 26.90625 142.75 C26.24625 142.42 25.58625 142.09 24.90625 141.75 C24.57625 142.74 24.24625 143.73 23.90625 144.75 C23.41125 143.76 23.41125 143.76 22.90625 142.75 C21.58625 143.08 20.26625 143.41 18.90625 143.75 C19.23625 143.234375 19.56625 142.71875 19.90625 142.1875 C21.29124723 138.81156926 21.28133781 136.37584884 20.90625 132.75 C18.72544419 128.48156409 18.72544419 128.48156409 14.90625 125.85546875 C12.30946398 124.42013585 11.79002225 123.08345594 10.65625 120.375 C10.32109375 119.60414063 9.9859375 118.83328125 9.640625 118.0390625 C8.90625 115.75 8.90625 115.75 8.90625 111.75 C10.39125 110.76 10.39125 110.76 11.90625 109.75 C11.90625 108.43 11.90625 107.11 11.90625 105.75 C12.89625 105.75 13.88625 105.75 14.90625 105.75 C15.23625 105.09 15.56625 104.43 15.90625 103.75 C17.39125 104.245 17.39125 104.245 18.90625 104.75 C19.7725 103.574375 19.7725 103.574375 20.65625 102.375 C22.81543819 99.85594712 24.06047051 99.17288975 26.90625 97.75 C28.17429566 95.7164052 28.17429566 95.7164052 28.90625 93.75 C29.56625 93.75 30.22625 93.75 30.90625 93.75 C31.40125 91.77 31.40125 91.77 31.90625 89.75 C32.56625 89.75 33.22625 89.75 33.90625 89.75 C34.15375 88.698125 34.40125 87.64625 34.65625 86.5625 C35.29607219 83.93876871 36.02236564 81.40945531 36.89453125 78.8515625 C39.75871033 70.41525321 42.83220381 59.52786144 39.90625 50.75 C39.24625 50.75 38.58625 50.75 37.90625 50.75 C37.95265625 50.07195312 37.9990625 49.39390625 38.046875 48.6953125 C38.31859617 41.68878793 37.5734428 35.84626585 33.90625 29.75 C31.39260244 27.92380913 31.39260244 27.92380913 28.90625 26.75 C28.20966637 25.09561387 27.54528117 23.42745682 26.90625 21.75 C24.37595311 18.96018548 22.04194017 16.84046011 18.90625 14.75 C18.90625 14.09 18.90625 13.43 18.90625 12.75 C17.9471875 12.5953125 17.9471875 12.5953125 16.96875 12.4375 C16.288125 12.210625 15.6075 11.98375 14.90625 11.75 C14.57625 10.76 14.24625 9.77 13.90625 8.75 C13.04 8.6675 12.17375 8.585 11.28125 8.5 C7.39523763 7.6364417 5.18906498 5.9608754 1.90625 3.75 C-0.41378132 2.90166532 -2.68516707 2.3280599 -5.09375 1.75 C-2.09375 -0.25 -2.09375 -0.25 0 0 Z " fill="#E89655" transform="translate(301.09375,168.25)"/>
<path d="M0 0 C2.475 0.99 2.475 0.99 5 2 C3.37448533 3.78806614 2.18305958 4.92233836 -0.0625 5.875 C-2.16601573 6.88447556 -2.16601573 6.88447556 -3.25 9.125 C-4.22875273 12.87688545 -4.13130728 16.1264351 -4 20 C-4.66 20 -5.32 20 -6 20 C-5.87625 21.4540625 -5.87625 21.4540625 -5.75 22.9375 C-5.75 27.86596049 -7.82968501 31.67423519 -10 36 C-10.33515625 36.72960937 -10.6703125 37.45921875 -11.015625 38.2109375 C-12.88989187 42.21234852 -14.74234202 44.9525135 -18 48 C-18.6496875 49.11375 -18.6496875 49.11375 -19.3125 50.25 C-21 53 -21 53 -22.68066406 54.33300781 C-26.38930194 57.49956995 -28.14280045 60.36391857 -28.57104492 65.21191406 C-28.77692317 70.31268076 -28.61106554 75.40063499 -28.4375 80.5 C-28.402348 82.29421009 -28.37041582 84.08848632 -28.34179688 85.8828125 C-28.26505976 90.2568539 -28.14449443 94.62769382 -28 99 C-27.00436035 98.83177734 -26.0087207 98.66355469 -24.98291016 98.49023438 C-21.04438367 97.93039364 -17.25191663 97.99428126 -13.2734375 98.15625 C-12.56273102 98.18223267 -11.85202454 98.20821533 -11.11978149 98.23498535 C-8.87124778 98.31740286 -6.62314979 98.40773601 -4.375 98.5 C-1.40385735 98.6213619 1.56744126 98.73481744 4.5390625 98.84375 C5.85084473 98.89724609 7.16262695 98.95074219 8.51416016 99.00585938 C11.53805531 99.00077649 14.08017904 98.73188309 17 98 C17.02909763 94.75001888 17.04683161 91.50007143 17.0625 88.25 C17.07506836 86.86941406 17.07506836 86.86941406 17.08789062 85.4609375 C17.09111328 84.57148438 17.09433594 83.68203125 17.09765625 82.765625 C17.10289307 81.94868164 17.10812988 81.13173828 17.11352539 80.29003906 C17.00279826 78.05644653 16.56852682 76.15397982 16 74 C16.15625 71.88671875 16.15625 71.88671875 16.5 69.6875 C17.03926787 65.595805 16.65348653 62.08429079 16 58 C16.33 57.01 16.66 56.02 17 55 C19.60951236 53.69524382 21.52701285 53.88698428 24.4453125 53.90234375 C26.05986328 53.90717773 26.05986328 53.90717773 27.70703125 53.91210938 C28.83496094 53.92048828 29.96289062 53.92886719 31.125 53.9375 C32.82849609 53.94426758 32.82849609 53.94426758 34.56640625 53.95117188 C37.37765638 53.96298385 40.1888023 53.97945493 43 54 C43.33 54.66 43.66 55.32 44 56 C36.08 56 28.16 56 20 56 C20.01160156 59.15304687 20.02320313 62.30609375 20.03515625 65.5546875 C20.04294901 68.59944559 20.04902453 71.64420258 20.05493164 74.68896484 C20.05996872 76.80941259 20.06679859 78.92985685 20.07543945 81.05029297 C20.08753234 84.09343322 20.09323447 87.13652766 20.09765625 90.1796875 C20.10281754 91.13181122 20.10797882 92.08393494 20.11329651 93.06491089 C20.11337204 93.94567291 20.11344757 94.82643494 20.11352539 95.73388672 C20.115746 96.51110077 20.11796661 97.28831482 20.12025452 98.08908081 C20 100 20 100 19 102 C2.83 102 -13.34 102 -30 102 C-30.92466909 99.22599272 -31.13567736 97.51885999 -31.16113281 94.65209961 C-31.17074036 93.7778685 -31.1803479 92.90363739 -31.19024658 92.00291443 C-31.19449646 91.0622261 -31.19874634 90.12153778 -31.203125 89.15234375 C-31.21167511 87.70088707 -31.21167511 87.70088707 -31.22039795 86.22010803 C-31.22984199 84.17498874 -31.23637956 82.12985426 -31.24023438 80.0847168 C-31.24997305 76.94618563 -31.28101537 73.80830025 -31.3125 70.66992188 C-31.31902681 68.68489973 -31.32427855 66.6998729 -31.328125 64.71484375 C-31.3404718 63.7721312 -31.3528186 62.82941864 -31.36553955 61.85813904 C-31.36253845 60.98706009 -31.35953735 60.11598114 -31.35644531 59.21850586 C-31.36009094 58.45034042 -31.36373657 57.68217499 -31.36749268 56.89073181 C-31.1855838 55.95481956 -31.1855838 55.95481956 -31 55 C-28 53 -28 53 -25 53 C-24.73960937 52.44570313 -24.47921875 51.89140625 -24.2109375 51.3203125 C-22.84709071 48.70700607 -21.26169072 46.32646252 -19.625 43.875 C-13.95964495 34.93032118 -11.49593091 26.86105851 -10.21386719 16.41967773 C-9.33971243 10.03210401 -7.23091608 5.92670025 -2.25 1.625 C-1.5075 1.08875 -0.765 0.5525 0 0 Z " fill="#C85D62" transform="translate(220,234)"/>
<path d="M0 0 C5.04424468 0.44508041 7.44443409 2.60980925 11 6 C11 6.66 11 7.32 11 8 C11.66 8 12.32 8 13 8 C13 8.99 13 9.98 13 11 C13.99 11 14.98 11 16 11 C16.66 8.69 17.32 6.38 18 4 C18.99 4 19.98 4 21 4 C23.475 9.445 23.475 9.445 26 15 C26.33 11.7 26.66 8.4 27 5 C31.45814296 7.22907148 33.3484686 9.4066783 35 14 C35.30838908 17.03570498 35.24800423 19.96194816 35 23 C35.99 22.34 36.98 21.68 38 21 C38.99 21 39.98 21 41 21 C42.35384615 27.27692308 42.35384615 27.27692308 40.5625 30.9375 C39.7890625 31.9584375 39.7890625 31.9584375 39 33 C39.5775 33.845625 40.155 34.69125 40.75 35.5625 C43.57768845 40.44850583 44.66410095 45.84484857 45.97265625 51.28125 C46.72202605 53.99379772 47.48730142 56.24900297 48.62109375 58.78125 C50 62 50 62 50 65 C50.66 65 51.32 65 52 65 C61.18451025 82.67198178 61.18451025 82.67198178 60 92 C58.02 92.495 58.02 92.495 56 93 C55.94392578 92.14728516 55.94392578 92.14728516 55.88671875 91.27734375 C55.42724003 85.88072119 54.2551861 81.90257847 52 77 C52 76.01 52 75.02 52 74 C51.01 73.67 50.02 73.34 49 73 C48.87625 71.7625 48.7525 70.525 48.625 69.25 C48.22816227 66.13041454 47.8241889 63.63493952 46 61 C45.01 60.34 44.02 59.68 43 59 C42.39453125 56.77734375 42.39453125 56.77734375 42 54 C40.18700928 43.76098101 40.18700928 43.76098101 35 35 C34.01 34.505 34.01 34.505 33 34 C33.33 31.03 33.66 28.06 34 25 C33.34 24.67 32.68 24.34 32 24 C31.375 20.9375 31.375 20.9375 31 18 C29.35 18.66 27.7 19.32 26 20 C23.72478134 17.83312509 21.84205838 15.54379491 20 13 C19.01 13.99 18.02 14.98 17 16 C13.23076923 14.49230769 13.23076923 14.49230769 12.0625 12 C10.60163333 9.25013332 8.88694538 8.91166696 6 8 C6.33 7.34 6.66 6.68 7 6 C6.030625 5.7525 5.06125 5.505 4.0625 5.25 C3.051875 4.8375 2.04125 4.425 1 4 C0.125 1.875 0.125 1.875 0 0 Z " fill="#C05858" transform="translate(215,164)"/>
<path d="M0 0 C0.66 0.33 1.32 0.66 2 1 C1.21625 1.7425 0.4325 2.485 -0.375 3.25 C-3.00612679 5.73654809 -3.00612679 5.73654809 -4.125 8.25 C-4.41375 8.8275 -4.7025 9.405 -5 10 C-5.99 10.33 -6.98 10.66 -8 11 C-12.55454437 17.07272583 -14.29801298 21.40066896 -14 29 C-13.566875 28.505 -13.13375 28.01 -12.6875 27.5 C-11 26 -11 26 -8 26 C-8 25.34 -8 24.68 -8 24 C-5.625 22.3125 -5.625 22.3125 -3 21 C-2.34 21.33 -1.68 21.66 -1 22 C-1.66 22.66 -2.32 23.32 -3 24 C-3.55400354 25.45979934 -4.04841205 26.94284206 -4.5 28.4375 C-5.41682554 31.46202775 -6.20971464 33.31457196 -8 36 C-8.63147577 38.17421605 -8.63147577 38.17421605 -9.0625 40.5 C-9.58700025 43.10082768 -10.15796475 45.47389425 -11 48 C-11.08209792 49.77313851 -11.10746294 51.54920775 -11.09765625 53.32421875 C-11.09443359 54.35224609 -11.09121094 55.38027344 -11.08789062 56.43945312 C-11.07951172 57.51130859 -11.07113281 58.58316406 -11.0625 59.6875 C-11.05798828 60.77095703 -11.05347656 61.85441406 -11.04882812 62.97070312 C-11.03703743 65.64719085 -11.02058063 68.32356777 -11 71 C-11.33 71 -11.66 71 -12 71 C-14.75381627 56.68470716 -13.10914728 44.79499445 -9 31 C-13.26941128 38.1433192 -16.20585311 44.86338646 -18 53 C-21 52 -21 52 -22.1875 49.9375 C-23.99733874 43.39423686 -22.88351716 37.08584505 -21.3125 30.625 C-21.13750977 29.88838135 -20.96251953 29.1517627 -20.78222656 28.39282227 C-19.29944147 22.49726355 -17.1342328 17.22800308 -14 12 C-13.34 12 -12.68 12 -12 12 C-11.7525 11.41605469 -11.505 10.83210937 -11.25 10.23046875 C-9.81544436 7.67068353 -8.23295714 6.20476699 -6 4.3125 C-5.29875 3.71050781 -4.5975 3.10851562 -3.875 2.48828125 C-2 1 -2 1 0 0 Z M-6 25 C-5 27 -5 27 -5 27 Z " fill="#F2A045" transform="translate(174,182)"/>
<path d="M0 0 C0.556875 0.37125 1.11375 0.7425 1.6875 1.125 C0.6975 3.765 -0.2925 6.405 -1.3125 9.125 C-0.9825 9.455 -0.6525 9.785 -0.3125 10.125 C-0.27157063 12.45797433 -0.27008277 14.79205225 -0.3125 17.125 C-2.2925 18.115 -2.2925 18.115 -4.3125 19.125 C-4.3125 20.115 -4.3125 21.105 -4.3125 22.125 C-4.80105469 22.82882813 -5.28960937 23.53265625 -5.79296875 24.2578125 C-7.89705181 28.22798466 -7.71573068 31.57960119 -7.625 36 C-7.62822266 36.77730469 -7.63144531 37.55460937 -7.63476562 38.35546875 C-7.58919428 43.28546011 -6.7566522 47.37992848 -5.3125 52.125 C-5.6875 55.5625 -5.6875 55.5625 -6.3125 58.125 C-12.4232507 48.95887395 -11.62981414 33.59347841 -9.63671875 23.07421875 C-8.94167115 20.06014976 -8.19251201 17.08980235 -7.3125 14.125 C-7.9661261 15.97643394 -8.61001218 17.83130758 -9.25 19.6875 C-9.60964844 20.72003906 -9.96929687 21.75257813 -10.33984375 22.81640625 C-13.57765929 33.83018041 -13.67071509 47.86786006 -11.3125 59.125 C-10.6525 59.455 -9.9925 59.785 -9.3125 60.125 C-11.2925 60.62 -11.2925 60.62 -13.3125 61.125 C-14.10647239 59.87646327 -14.89757217 58.62609957 -15.6875 57.375 C-16.12835938 56.67890625 -16.56921875 55.9828125 -17.0234375 55.265625 C-19.41038311 51.30184865 -20.57372978 48.82713605 -20.3125 44.125 C-19.9825 44.785 -19.6525 45.445 -19.3125 46.125 C-18.3225 46.125 -17.3325 46.125 -16.3125 46.125 C-16.28671875 44.82046875 -16.2609375 43.5159375 -16.234375 42.171875 C-15.89629811 30.51435909 -14.74030295 20.63984697 -9.3125 10.125 C-8.6525 10.125 -7.9925 10.125 -7.3125 10.125 C-7.3125 7.155 -7.3125 4.185 -7.3125 1.125 C-2.88173077 -1.09038462 -2.88173077 -1.09038462 0 0 Z M-5.3125 7.125 C-4.3125 9.125 -4.3125 9.125 -4.3125 9.125 Z " fill="#EA9F60" transform="translate(184.3125,209.875)"/>
<path d="M0 0 C2.475 0.99 2.475 0.99 5 2 C3.37448533 3.78806614 2.18305958 4.92233836 -0.0625 5.875 C-2.16601573 6.88447556 -2.16601573 6.88447556 -3.25 9.125 C-4.22875273 12.87688545 -4.13130728 16.1264351 -4 20 C-4.66 20 -5.32 20 -6 20 C-5.87625 21.4540625 -5.87625 21.4540625 -5.75 22.9375 C-5.75 27.86596049 -7.82968501 31.67423519 -10 36 C-10.33515625 36.72960937 -10.6703125 37.45921875 -11.015625 38.2109375 C-12.88989187 42.21234852 -14.74234202 44.9525135 -18 48 C-18.6496875 49.11375 -18.6496875 49.11375 -19.3125 50.25 C-21.75311618 54.22730045 -24.87454434 57.54915443 -28 61 C-28.33 59.68 -28.66 58.36 -29 57 C-29.66 57 -30.32 57 -31 57 C-30.67 56.01 -30.34 55.02 -30 54 C-29.21625 53.9175 -28.4325 53.835 -27.625 53.75 C-26.75875 53.5025 -25.8925 53.255 -25 53 C-24.27955862 51.69493815 -23.62351451 50.35405017 -23 49 C-21.88696705 47.28384574 -20.76077779 45.57618682 -19.625 43.875 C-13.95964495 34.93032118 -11.49593091 26.86105851 -10.21386719 16.41967773 C-9.33971243 10.03210401 -7.23091608 5.92670025 -2.25 1.625 C-1.5075 1.08875 -0.765 0.5525 0 0 Z " fill="#BB4349" transform="translate(220,234)"/>
<path d="M0 0 C2.0625 0.4375 2.0625 0.4375 4 1 C4 1.66 4 2.32 4 3 C3.34 3 2.68 3 2 3 C2.58007812 3.93005859 2.58007812 3.93005859 3.171875 4.87890625 C7.13167358 11.61252413 9.28809276 17.88953056 11.04296875 25.421875 C11.75693781 28.09124505 12.49976916 30.27897703 13.61328125 32.765625 C15 36 15 36 15 39 C15.66 39 16.32 39 17 39 C26.18451025 56.67198178 26.18451025 56.67198178 25 66 C23.02 66.495 23.02 66.495 21 67 C20.96261719 66.43152344 20.92523438 65.86304688 20.88671875 65.27734375 C20.42724003 59.88072119 19.2551861 55.90257847 17 51 C17 50.01 17 49.02 17 48 C15.515 47.505 15.515 47.505 14 47 C13.814375 45.14375 13.814375 45.14375 13.625 43.25 C13.22816227 40.13041454 12.8241889 37.63493952 11 35 C10.01 34.34 9.02 33.68 8 33 C7.39453125 30.77734375 7.39453125 30.77734375 7 28 C5.18700928 17.76098101 5.18700928 17.76098101 0 9 C-0.66 8.67 -1.32 8.34 -2 8 C-1.125 1.125 -1.125 1.125 0 0 Z " fill="#BA404A" transform="translate(250,190)"/>
<path d="M0 0 C0.99 0.33 1.98 0.66 3 1 C3 1.66 3 2.32 3 3 C3.66 3 4.32 3 5 3 C5 4.65 5 6.3 5 8 C7.49064888 8.68707555 9.37886292 9 12 9 C12.12375 9.969375 12.2475 10.93875 12.375 11.9375 C12.58125 12.948125 12.7875 13.95875 13 15 C13.66 15.33 14.32 15.66 15 16 C17.9747656 21.79296459 16.74525788 27.77608958 16 34 C16.73476563 33.64292969 17.46953125 33.28585938 18.2265625 32.91796875 C21.40265538 31.86672674 22.34912546 32.0726561 25.375 33.3125 C29.3072948 34.80110741 32.82584276 35.55594072 37 36 C37 37.32 37 38.64 37 40 C36.27296875 39.79503906 35.5459375 39.59007812 34.796875 39.37890625 C28.26448517 37.62856077 22.26750265 36.65551795 15.49609375 36.6015625 C13 36 13 36 11.140625 33.60546875 C9.74569487 30.41910438 10.15038014 29.32124129 11 26 C11.49116323 19.81134325 11.05519263 16.9820938 7 12 C6.505 11.54625 6.01 11.0925 5.5 10.625 C3.69156663 8.66586385 2.84310547 6.76463025 1.8125 4.3125 C1.46832031 3.50425781 1.12414062 2.69601563 0.76953125 1.86328125 C0.51558594 1.24839844 0.26164063 0.63351563 0 0 Z " fill="#D1603B" transform="translate(247,168)"/>
<path d="M0 0 C0.66 0 1.32 0 2 0 C3.12915039 1.42114258 3.12915039 1.42114258 4.34765625 3.39453125 C5.00797852 4.45704102 5.00797852 4.45704102 5.68164062 5.54101562 C6.13732422 6.29060547 6.59300781 7.04019531 7.0625 7.8125 C7.75182617 8.91948242 7.75182617 8.91948242 8.45507812 10.04882812 C10.29770549 13.03870073 11.88435075 15.65305226 13 19 C13.66 19 14.32 19 15 19 C16.69140625 21.265625 16.69140625 21.265625 18.5625 24.25 C19.49255859 25.71179688 19.49255859 25.71179688 20.44140625 27.203125 C22 30 22 30 23 34 C5.51 34 -11.98 34 -30 34 C-30 33.67 -30 33.34 -30 33 C-14.16 32.67 1.68 32.34 18 32 C18 31.01 18 30.02 18 29 C17.01 29 16.02 29 15 29 C14.71125 28.195625 14.4225 27.39125 14.125 26.5625 C13.26737432 23.8673532 13.26737432 23.8673532 11 23 C11 21.68 11 20.36 11 19 C9.02 18.34 7.04 17.68 5 17 C4.505 11.555 4.505 11.555 4 6 C2.68 5.67 1.36 5.34 0 5 C0 3.35 0 1.7 0 0 Z " fill="#EEA754" transform="translate(325,302)"/>
<path d="M0 0 C0.33 0 0.66 0 1 0 C1.45504688 8.94925538 1.45504688 8.94925538 -2 13 C-2.86625 13.33 -3.7325 13.66 -4.625 14 C-5.40875 14.33 -6.1925 14.66 -7 15 C-7.89386164 17.54775306 -7.89386164 17.54775306 -8 20 C-11 21 -11 21 -13 21 C-13.99 21.33 -14.98 21.66 -16 22 C-17.33841672 21.68770276 -18.67139075 21.35169068 -20 21 C-21.66617115 20.95936168 -23.33388095 20.957279 -25 21 C-25.99 21 -26.98 21 -28 21 C-29.42258812 17.17679443 -30.24042276 14.08718695 -30 10 C-30.66 9.67 -31.32 9.34 -32 9 C-30.68 9 -29.36 9 -28 9 C-27.443125 9.78375 -26.88625 10.5675 -26.3125 11.375 C-23.04685873 15.08194415 -19.83601361 15.67268943 -15 16 C-9.44351182 15.16652677 -6.4178378 13.46217712 -3 9 C-1.76958794 6.05491733 -0.82569109 3.0812375 0 0 Z " fill="#CF5437" transform="translate(278,250)"/>
<path d="M0 0 C0.66 0.33 1.32 0.66 2 1 C2 1.66 2 2.32 2 3 C2.763125 3.144375 3.52625 3.28875 4.3125 3.4375 C8.04787745 5.60923108 8.37092715 8.0782752 9.51953125 12.1015625 C9.67808594 12.72804688 9.83664062 13.35453125 10 14 C10.86625 13.67 11.7325 13.34 12.625 13 C16.59283679 11.82434465 20.19044361 11.09522181 24 13 C23.75 14.875 23.75 14.875 23 17 C18.83258451 19.62188392 14.77530371 19.54672529 10 19 C5.73751506 17.2394084 3.93766662 15.13956051 2 11 C0.8993054 7.69284389 -0.07967462 4.36147215 -1 1 C-0.67 0.67 -0.34 0.34 0 0 Z " fill="#C23435" transform="translate(248,245)"/>
<path d="M0 0 C1.07636719 0.00322266 2.15273437 0.00644531 3.26171875 0.00976562 C4.38964844 0.01814453 5.51757812 0.02652344 6.6796875 0.03515625 C7.81535156 0.03966797 8.95101562 0.04417969 10.12109375 0.04882812 C12.93234388 0.0606401 15.7434898 0.07711118 18.5546875 0.09765625 C18.8846875 0.75765625 19.2146875 1.41765625 19.5546875 2.09765625 C11.6346875 2.09765625 3.7146875 2.09765625 -4.4453125 2.09765625 C-4.4453125 16.61765625 -4.4453125 31.13765625 -4.4453125 46.09765625 C-4.7753125 46.09765625 -5.1053125 46.09765625 -5.4453125 46.09765625 C-5.50066162 45.4521582 -5.55601074 44.80666016 -5.61303711 44.14160156 C-5.86629861 41.2099877 -6.12450286 38.27882944 -6.3828125 35.34765625 C-6.46982422 34.331875 -6.55683594 33.31609375 -6.64648438 32.26953125 C-6.73349609 31.28984375 -6.82050781 30.31015625 -6.91015625 29.30078125 C-6.9887085 28.40004883 -7.06726074 27.49931641 -7.14819336 26.57128906 C-7.41687203 24.33443426 -7.89450449 22.27645374 -8.4453125 20.09765625 C-8.2890625 17.984375 -8.2890625 17.984375 -7.9453125 15.78515625 C-7.40604463 11.69346125 -7.79182597 8.18194704 -8.4453125 4.09765625 C-8.1153125 3.10765625 -7.7853125 2.11765625 -7.4453125 1.09765625 C-4.83580014 -0.20709993 -2.91829965 -0.01535947 0 0 Z " fill="#C85F54" transform="translate(244.4453125,287.90234375)"/>
<path d="M0 0 C0.66 0 1.32 0 2 0 C1.9278125 0.76441406 1.855625 1.52882812 1.78125 2.31640625 C0.1474051 20.70946336 0.1474051 20.70946336 2 39 C2.66 39.33 3.32 39.66 4 40 C2.02 40.495 2.02 40.495 0 41 C-0.79397239 39.75146327 -1.58507217 38.50109957 -2.375 37.25 C-2.81585938 36.55390625 -3.25671875 35.8578125 -3.7109375 35.140625 C-6.09788311 31.17684865 -7.26122978 28.70213605 -7 24 C-6.67 24.66 -6.34 25.32 -6 26 C-5.01 26 -4.02 26 -3 26 C-2.98018066 25.42556152 -2.96036133 24.85112305 -2.93994141 24.25927734 C-2.84407976 21.63076167 -2.73465126 19.00297509 -2.625 16.375 C-2.57859375 15.01955078 -2.57859375 15.01955078 -2.53125 13.63671875 C-2.31706465 8.74615328 -1.87645845 4.59198368 0 0 Z " fill="#E69B57" transform="translate(171,230)"/>
<path d="M0 0 C5.7414557 8.61218356 3.68601285 23.61781531 1.8125 33.25 C0.18309658 40.07797622 -1.91850627 47.91850627 -7 53 C-7.32716136 48.55199773 -6.5231695 45.27697751 -4.91650391 41.13818359 C-0.64853882 30.14005972 0.01465709 19.70124608 0 8 C0.00161133 7.21012695 0.00322266 6.42025391 0.00488281 5.60644531 C0.00734502 3.73763112 0.00431596 1.86881083 0 0 Z " fill="#EDAF68" transform="translate(342,209)"/>
<path d="M0 0 C0.99 1.32 1.98 2.64 3 4 C2.67 4.66 2.34 5.32 2 6 C8.95352088 6.81623796 15.81292609 7.18246071 22.8125 7.1875 C23.72708984 7.19974609 24.64167969 7.21199219 25.58398438 7.22460938 C30.15674631 7.23458631 33.85743485 7.19720961 38 5 C38.495 6.485 38.495 6.485 39 8 C40.98 8.33 42.96 8.66 45 9 C45 9.33 45 9.66 45 10 C38.98624962 10.22297148 32.97491662 10.38601105 26.95800781 10.49438477 C24.91298509 10.53956701 22.86825188 10.60092981 20.82421875 10.67895508 C17.87948281 10.78852332 14.93859387 10.83924086 11.9921875 10.87890625 C11.0825827 10.92535782 10.17297791 10.97180939 9.23580933 11.01966858 C6.53666657 11.021801 4.54014454 10.92653591 2 10 C-0.57947508 7.27465911 -2.33774507 4.35118763 -4 1 C-2.68 0.67 -1.36 0.34 0 0 Z " fill="#DC8852" transform="translate(292,325)"/>
<path d="M0 0 C5.04424468 0.44508041 7.44443409 2.60980925 11 6 C11 6.66 11 7.32 11 8 C11.66 8 12.32 8 13 8 C13 8.99 13 9.98 13 11 C13.99 11 14.98 11 16 11 C16.66 8.69 17.32 6.38 18 4 C18.99 4 19.98 4 21 4 C21.32613281 4.74765625 21.65226562 5.4953125 21.98828125 6.265625 C22.42527344 7.25046875 22.86226562 8.2353125 23.3125 9.25 C23.74175781 10.22453125 24.17101562 11.1990625 24.61328125 12.203125 C25.87053843 14.73888878 27.22177189 16.80980702 29 19 C27.68 19.33 26.36 19.66 25 20 C23.35 17.69 21.7 15.38 20 13 C19.01 13.99 18.02 14.98 17 16 C13.23076923 14.49230769 13.23076923 14.49230769 12.0625 12 C10.60163333 9.25013332 8.88694538 8.91166696 6 8 C6.33 7.34 6.66 6.68 7 6 C6.030625 5.7525 5.06125 5.505 4.0625 5.25 C3.051875 4.8375 2.04125 4.425 1 4 C0.125 1.875 0.125 1.875 0 0 Z " fill="#C75247" transform="translate(215,164)"/>
<path d="M0 0 C0.99 0.33 1.98 0.66 3 1 C2.68675781 1.84304687 2.37351563 2.68609375 2.05078125 3.5546875 C0.95918895 7.13381171 0.54684573 10.40517939 0.1875 14.125 C-0.81478568 22.19101334 -2.59491099 31.39788133 -9 37 C-8.85769192 35.58297487 -8.71099254 34.1663904 -8.5625 32.75 C-8.48128906 31.96109375 -8.40007812 31.1721875 -8.31640625 30.359375 C-8 28 -8 28 -7.46484375 25.890625 C-6.88062145 23.83894894 -6.88062145 23.83894894 -7 21 C-6.34 20.67 -5.68 20.34 -5 20 C-5 19.01 -5 18.02 -5 17 C-4.71372955 14.32643843 -4.34968449 11.66634425 -4 9 C-3.34 9 -2.68 9 -2 9 C-1.855625 7.700625 -1.71125 6.40125 -1.5625 5.0625 C-1.125 1.125 -1.125 1.125 0 0 Z " fill="#D96E46" transform="translate(208,239)"/>
<path d="M0 0 C0.66 0.33 1.32 0.66 2 1 C1.34 1.66 0.68 2.32 0 3 C-0.55400354 4.45979934 -1.04841205 5.94284206 -1.5 7.4375 C-2.41682554 10.46202775 -3.20971464 12.31457196 -5 15 C-5.63147577 17.17421605 -5.63147577 17.17421605 -6.0625 19.5 C-6.58700025 22.10082768 -7.15796475 24.47389425 -8 27 C-8.08209792 28.77313851 -8.10746294 30.54920775 -8.09765625 32.32421875 C-8.09443359 33.35224609 -8.09121094 34.38027344 -8.08789062 35.43945312 C-8.07951172 36.51130859 -8.07113281 37.58316406 -8.0625 38.6875 C-8.05798828 39.77095703 -8.05347656 40.85441406 -8.04882812 41.97070312 C-8.03703743 44.64719085 -8.02058063 47.32356777 -8 50 C-8.33 50 -8.66 50 -9 50 C-11.75381627 35.68470716 -10.10914728 23.79499445 -6 10 C-6.99 11.32 -7.98 12.64 -9 14 C-9.125 7.25 -9.125 7.25 -8 5 C-7.01 5 -6.02 5 -5 5 C-5 4.34 -5 3.68 -5 3 C-2.625 1.3125 -2.625 1.3125 0 0 Z M-3 4 C-2 6 -2 6 -2 6 Z " fill="#E6A265" transform="translate(171,203)"/>
<path d="M0 0 C0.66 0.33 1.32 0.66 2 1 C1.21625 1.7425 0.4325 2.485 -0.375 3.25 C-3.00612679 5.73654809 -3.00612679 5.73654809 -4.125 8.25 C-4.41375 8.8275 -4.7025 9.405 -5 10 C-5.99 10.33 -6.98 10.66 -8 11 C-8.99 12.485 -8.99 12.485 -10 14 C-12 17 -12 17 -15 18 C-15.70089243 19.83717141 -15.70089243 19.83717141 -16 22.0625 C-16.86518901 26.63773682 -18.27196639 30.67991597 -20 35 C-20.33 35 -20.66 35 -21 35 C-20.70158595 27.85298355 -19.27200325 22.34645159 -16 16 C-15.62746094 15.25492188 -15.25492188 14.50984375 -14.87109375 13.7421875 C-14.58363281 13.16726562 -14.29617187 12.59234375 -14 12 C-13.34 12 -12.68 12 -12 12 C-11.7525 11.41605469 -11.505 10.83210937 -11.25 10.23046875 C-9.81544436 7.67068353 -8.23295714 6.20476699 -6 4.3125 C-5.29875 3.71050781 -4.5975 3.10851562 -3.875 2.48828125 C-2 1 -2 1 0 0 Z " fill="#ECA861" transform="translate(174,182)"/>
<path d="M0 0 C2.0625 0.4375 2.0625 0.4375 4 1 C4 1.66 4 2.32 4 3 C3.34 3 2.68 3 2 3 C2.40992188 3.68964844 2.81984375 4.37929687 3.2421875 5.08984375 C10.92895892 18.49572021 10.92895892 18.49572021 9.53515625 25.25390625 C9.35855469 25.83011719 9.18195313 26.40632813 9 27 C8.34 27 7.68 27 7 27 C6.82984375 26.20335937 6.6596875 25.40671875 6.484375 24.5859375 C5.11764608 18.61013341 3.97068775 13.73920796 0 9 C-0.66 8.67 -1.32 8.34 -2 8 C-1.125 1.125 -1.125 1.125 0 0 Z " fill="#C04B4B" transform="translate(250,190)"/>
<path d="M0 0 C-0.33 0.66 -0.66 1.32 -1 2 C-3.24134522 2.25816542 -5.49577536 2.40646371 -7.75 2.5 C-12.30029006 2.69038871 -15.8630521 3.04205519 -20 5 C-19.835 5.598125 -19.67 6.19625 -19.5 6.8125 C-19 9 -19 9 -19 12 C-22.28696233 12.79953138 -23.71023192 13.09658936 -27 12 C-26.34 11.67 -25.68 11.34 -25 11 C-26.65 11 -28.3 11 -30 11 C-30.33 10.01 -30.66 9.02 -31 8 C-8.18446602 -4.09223301 -8.18446602 -4.09223301 0 0 Z " fill="#DD8B5B" transform="translate(203,169)"/>
<path d="M0 0 C2.625 0.9375 2.625 0.9375 5 2 C2.36218033 4.90160164 -0.24308855 6.54574153 -4.0546875 7.53125 C-6.4346449 8.99296429 -6.4346449 8.99296429 -6.79296875 12.80859375 C-6.94323778 14.34984868 -7.0739976 15.89310214 -7.1875 17.4375 C-7.92887443 25.7866233 -7.92887443 25.7866233 -9 29 C-9.66 29 -10.32 29 -11 29 C-11 30.32 -11 31.64 -11 33 C-11.66 32.67 -12.32 32.34 -13 32 C-12.14466168 27.30134151 -11.26782828 22.60779785 -10.36279297 17.91845703 C-10.07875901 16.41647932 -9.8180739 14.91008236 -9.56640625 13.40234375 C-8.53979152 8.07876429 -5.87253356 4.63050022 -2 1 C-1.34 0.67 -0.68 0.34 0 0 Z " fill="#BC4B4B" transform="translate(220,234)"/>
<path d="M0 0 C7.31990409 6.79591963 10.4087835 14.9452595 10.875 24.75 C10.95861932 27.16978505 10.99385327 29.57818744 11 32 C10.34 31.01 9.68 30.02 9 29 C8.34 29 7.68 29 7 29 C7.06960938 27.98292969 7.06960938 27.98292969 7.140625 26.9453125 C7.41595796 19.84565541 6.47308285 14.25622668 3 8 C1.68456137 6.64900897 0.35824882 5.30794331 -1 4 C-0.75 1.75 -0.75 1.75 0 0 Z " fill="#E9A863" transform="translate(332,190)"/>
<path d="M0 0 C3.84682944 3.33391884 4.23755694 4.71267083 6 10 C-11.49 10 -28.98 10 -47 10 C-47 9.67 -47 9.34 -47 9 C-31.16 8.67 -15.32 8.34 1 8 C0.505 4.04 0.505 4.04 0 0 Z " fill="#EDB47D" transform="translate(342,326)"/>
<path d="M0 0 C0.33 0 0.66 0 1 0 C1.33 1.65 1.66 3.3 2 5 C2.66 5 3.32 5 4 5 C4.33 4.34 4.66 3.68 5 3 C5.99 3 6.98 3 8 3 C7.19924675 6.26520744 6.32533815 9.50746067 5.4375 12.75 C5.16808594 13.73484375 4.89867187 14.7196875 4.62109375 15.734375 C4.41613281 16.48203125 4.21117187 17.2296875 4 18 C1 17 1 17 -0.1875 14.9375 C-1.54836164 10.01746176 -1.63359778 4.90079335 0 0 Z " fill="#EBA755" transform="translate(152,217)"/>
<path d="M0 0 C0.99 0.33 1.98 0.66 3 1 C3 1.66 3 2.32 3 3 C3.66 3 4.32 3 5 3 C5 4.65 5 6.3 5 8 C7.49064888 8.68707555 9.37886292 9 12 9 C14.1583195 15.07027358 14.20852314 20.59370576 14 27 C13.34 27.33 12.68 27.66 12 28 C11.34 28.99 10.68 29.98 10 31 C10.165 30.34 10.33 29.68 10.5 29 C11.42699731 23.43801611 11.89993371 19.64470644 9.1875 14.6875 C7.21164395 12.12723105 7.21164395 12.12723105 5.5 10.625 C3.69156663 8.66586385 2.84310547 6.76463025 1.8125 4.3125 C1.46832031 3.50425781 1.12414062 2.69601563 0.76953125 1.86328125 C0.51558594 1.24839844 0.26164063 0.63351563 0 0 Z " fill="#CD654E" transform="translate(247,168)"/>
<path d="M0 0 C0.66 0 1.32 0 2 0 C2.55312419 3.7079807 2.08762315 4.87941913 -0.16015625 7.97265625 C-1.1146982 9.01457652 -2.08270957 10.04428642 -3.0625 11.0625 C-3.52849609 11.57876953 -3.99449219 12.09503906 -4.47460938 12.62695312 C-7.94540702 16.33385946 -11.49961535 18.65710312 -16 21 C-16 18 -16 18 -13.625 15.5 C-12.75875 14.675 -11.8925 13.85 -11 13 C-10.34 12.01 -9.68 11.02 -9 10 C-8.34 9.690625 -7.68 9.38125 -7 9.0625 C-4.54471073 7.75812758 -4.01349081 6.53372703 -3 4 C-2.34 4 -1.68 4 -1 4 C-0.67 2.68 -0.34 1.36 0 0 Z " fill="#EE9B4F" transform="translate(333,258)"/>
<path d="M0 0 C4.95805724 -0.07549162 9.91576299 -0.12921778 14.87426758 -0.16479492 C16.55271243 -0.17966256 18.23112005 -0.19996277 19.90942383 -0.22631836 C31.62721983 -0.40540364 42.53469842 0.54255598 54 3 C54 3.33 54 3.66 54 4 C51.18730395 3.85739297 48.37488696 3.71098694 45.5625 3.5625 C44.3878418 3.50352539 44.3878418 3.50352539 43.18945312 3.44335938 C39.33168472 3.2369767 35.51997154 2.95962344 31.6875 2.46875 C25.94507957 1.79550071 20.21128274 1.89225637 14.4375 1.9375 C12.78137695 1.94426758 12.78137695 1.94426758 11.09179688 1.95117188 C8.394473 1.9628486 5.69726653 1.97922475 3 2 C3 2.66 3 3.32 3 4 C2.34 4 1.68 4 1 4 C0.67 2.68 0.34 1.36 0 0 Z " fill="#C16A53" transform="translate(244,164)"/>
<path d="M0 0 C0.66 0.33 1.32 0.66 2 1 C1.75 2.875 1.75 2.875 1 5 C-1.97397684 6.91184226 -4.25541503 7.22778191 -7.75 7.125 C-8.54921875 7.10695313 -9.3484375 7.08890625 -10.171875 7.0703125 C-10.77515625 7.04710937 -11.3784375 7.02390625 -12 7 C-12.33 6.01 -12.66 5.02 -13 4 C-8.49807763 0.48630449 -5.70991556 -0.54903034 0 0 Z " fill="#B62C38" transform="translate(270,257)"/>
<path d="M0 0 C0.33 0 0.66 0 1 0 C1.19235797 5.07163574 1.37106479 10.1434989 1.53710938 15.21606445 C1.59552576 16.9417817 1.65767766 18.6673767 1.72363281 20.39282227 C1.81776434 22.87233218 1.89847386 25.3519707 1.9765625 27.83203125 C2.00875885 28.60400345 2.0409552 29.37597565 2.0741272 30.17134094 C2.18216648 34.03041447 2.19852515 35.70221227 0 39 C-0.92342833 31.18383881 -1.10948327 23.42560112 -1.125 15.5625 C-1.12951172 14.60327637 -1.13402344 13.64405273 -1.13867188 12.65576172 C-1.13673828 11.73939941 -1.13480469 10.82303711 -1.1328125 9.87890625 C-1.13112061 8.65022827 -1.13112061 8.65022827 -1.12939453 7.39672852 C-0.99201451 4.85208759 -0.55641137 2.48395959 0 0 Z " fill="#BD6D78" transform="translate(190,291)"/>
<path d="M0 0 C0.66 0 1.32 0 2 0 C2 3.63 2 7.26 2 11 C1.34 11 0.68 11 0 11 C0.0825 11.969375 0.165 12.93875 0.25 13.9375 C0.25972687 18.69394186 -1.44577665 23.0191703 -4 27 C-4.99 27.33 -5.98 27.66 -7 28 C-7 26.68 -7 25.36 -7 24 C-6.34 24 -5.68 24 -5 24 C-5 22.68 -5 21.36 -5 20 C-4.34 20 -3.68 20 -3 20 C-2.95101562 19.05898438 -2.90203125 18.11796875 -2.8515625 17.1484375 C-2.77679688 15.90320313 -2.70203125 14.65796875 -2.625 13.375 C-2.55539063 12.14523438 -2.48578125 10.91546875 -2.4140625 9.6484375 C-2.0185513 6.16346145 -1.23738151 3.26950399 0 0 Z " fill="#BE3136" transform="translate(214,243)"/>
<path d="M0 0 C0.8353125 0.556875 0.8353125 0.556875 1.6875 1.125 C0.6975 3.765 -0.2925 6.405 -1.3125 9.125 C-0.9825 9.455 -0.6525 9.785 -0.3125 10.125 C-0.27157063 12.45797433 -0.27008277 14.79205225 -0.3125 17.125 C-1.9625 17.785 -3.6125 18.445 -5.3125 19.125 C-4.64583333 14.45833333 -3.97916667 9.79166667 -3.3125 5.125 C-2.6525 5.125 -1.9925 5.125 -1.3125 5.125 C-1.9725 4.465 -2.6325 3.805 -3.3125 3.125 C-4.3025 3.62 -4.3025 3.62 -5.3125 4.125 C-5.9725 3.795 -6.6325 3.465 -7.3125 3.125 C-7.3125 2.465 -7.3125 1.805 -7.3125 1.125 C-2.88173077 -1.09038462 -2.88173077 -1.09038462 0 0 Z " fill="#E78341" transform="translate(184.3125,209.875)"/>
<path d="M0 0 C0.66 0.33 1.32 0.66 2 1 C2 1.66 2 2.32 2 3 C3.98 3.33 5.96 3.66 8 4 C8 4.33 8 4.66 8 5 C2.80355771 4.90636355 -2.39242426 4.80024689 -7.58837891 4.68261719 C-9.3555607 4.64436229 -11.12281944 4.6095033 -12.89013672 4.578125 C-15.43224563 4.53239848 -17.97382648 4.47441711 -20.515625 4.4140625 C-21.30430969 4.40251129 -22.09299438 4.39096008 -22.90557861 4.37905884 C-26.72273255 4.27662916 -29.76044336 4.147148 -33 2 C-30.82081093 1.29954637 -29.41010315 0.89687496 -27.16210938 1.4621582 C-23.03139276 2.48970661 -18.73517166 2.18462675 -14.5 2.1875 C-13.07494141 2.20586914 -13.07494141 2.20586914 -11.62109375 2.22460938 C-10.24630859 2.22750977 -10.24630859 2.22750977 -8.84375 2.23046875 C-8.01037109 2.23457764 -7.17699219 2.23868652 -6.31835938 2.24291992 C-3.80032905 1.97907829 -2.23383233 1.13158093 0 0 Z " fill="#E98B42" transform="translate(329,330)"/>
<path d="M0 0 C4.75 1.875 4.75 1.875 7 3 C7 2.01 7 1.02 7 0 C7.99 0 8.98 0 10 0 C10 0.66 10 1.32 10 2 C10.99 2.33 11.98 2.66 13 3 C11.625 5.0625 11.625 5.0625 9 7 C5.59939315 7.05863115 2.34440677 6.58718592 -1 6 C-1.33 5.01 -1.66 4.02 -2 3 C-1.34 2.01 -0.68 1.02 0 0 Z " fill="#C53D3A" transform="translate(242,217)"/>
<path d="M0 0 C2.97 0.495 2.97 0.495 6 1 C6 2.65 6 4.3 6 6 C6.99 6 7.98 6 9 6 C9 7.32 9 8.64 9 10 C9.99 10.33 10.98 10.66 12 11 C12 12.98 12 14.96 12 17 C8.67835601 13.9102726 6.23969512 10.59775869 3.75 6.8125 C3.04359375 5.74644531 2.3371875 4.68039062 1.609375 3.58203125 C0 1 0 1 0 0 Z " fill="#D87A5C" transform="translate(265,292)"/>
<path d="M0 0 C1.4606285 2.64738916 2 3.89448334 2 7 C1.34 7 0.68 7 0 7 C-0.061875 8.093125 -0.12375 9.18625 -0.1875 10.3125 C-1 14 -1 14 -3.5 15.875 C-4.325 16.24625 -5.15 16.6175 -6 17 C-6.33 17.33 -6.66 17.66 -7 18 C-9.33297433 18.04092937 -11.66705225 18.04241723 -14 18 C-11.53721199 15.53721199 -9.29323018 15.00228745 -6 14 C-6 13.34 -6 12.68 -6 12 C-5.34 12 -4.68 12 -4 12 C-2.33510818 8.07561214 -1.12795963 4.10899581 0 0 Z " fill="#DD8158" transform="translate(293,232)"/>
<path d="M0 0 C3.375 0.25 3.375 0.25 7 1 C8.25 2.5625 8.25 2.5625 9 5 C9.8353125 6.7634375 9.8353125 6.7634375 10.6875 8.5625 C12.64019006 13.72736521 11.81603961 18.65149943 11 24 C10.67 24 10.34 24 10 24 C9.85304688 22.83984375 9.85304688 22.83984375 9.703125 21.65625 C8.46732412 13.04825765 6.82764583 5.85226785 0 0 Z " fill="#DE8C65" transform="translate(284,208)"/>
<path d="M0 0 C5.03035477 2.51517739 5.58250626 4.07867345 8 9 C8 9.99 8 10.98 8 12 C7.34 12 6.68 12 6 12 C6 11.01 6 10.02 6 9 C4.68 9 3.36 9 2 9 C1.34 9.99 0.68 10.98 0 12 C0 8.04 0 4.08 0 0 Z " fill="#C25B56" transform="translate(242,169)"/>
<path d="M0 0 C0.33 0 0.66 0 1 0 C1 4.95 1 9.9 1 15 C1.66 15 2.32 15 3 15 C3.144375 16.216875 3.28875 17.43375 3.4375 18.6875 C3.73194764 21.13834362 4.09978023 23.40819184 4.6875 25.8125 C5 28 5 28 3 31 C0.26691775 23.52957517 -0.14482535 16.42140449 -0.0625 8.5625 C-0.05798828 7.73556641 -0.05347656 6.90863281 -0.04882812 6.05664062 C-0.03715811 4.03772854 -0.01922718 2.01885426 0 0 Z " fill="#E69F66" transform="translate(174,237)"/>
<path d="M0 0 C0.33 0 0.66 0 1 0 C1.33 1.65 1.66 3.3 2 5 C4.97 5.495 4.97 5.495 8 6 C7.67 7.98 7.34 9.96 7 12 C2.04303419 10.76075855 -0.11658466 9.21422242 -3 5 C-2.03114628 3.31503702 -1.03013277 1.64821244 0 0 Z " fill="#BE493F" transform="translate(238,246)"/>
<path d="M0 0 C1.23556641 0.01740234 1.23556641 0.01740234 2.49609375 0.03515625 C3.32238281 0.04417969 4.14867187 0.05320313 5 0.0625 C5.63808594 0.07410156 6.27617187 0.08570313 6.93359375 0.09765625 C6.93359375 3.09765625 6.93359375 3.09765625 5.87109375 5.16015625 C5.56171875 5.79953125 5.25234375 6.43890625 4.93359375 7.09765625 C5.26359375 7.75765625 5.59359375 8.41765625 5.93359375 9.09765625 C5.60359375 9.75765625 5.27359375 10.41765625 4.93359375 11.09765625 C4.27359375 11.09765625 3.61359375 11.09765625 2.93359375 11.09765625 C2.93359375 9.44765625 2.93359375 7.79765625 2.93359375 6.09765625 C2.27359375 6.09765625 1.61359375 6.09765625 0.93359375 6.09765625 C-0.44873068 4.47139221 -1.7857814 2.80515605 -3.06640625 1.09765625 C-2.06640625 0.09765625 -2.06640625 0.09765625 0 0 Z " fill="#D05337" transform="translate(249.06640625,164.90234375)"/>
<path d="M0 0 C0.66 0 1.32 0 2 0 C2 3.63 2 7.26 2 11 C-2.95 11 -7.9 11 -13 11 C-13 10.34 -13 9.68 -13 9 C-11.1746875 9.0309375 -11.1746875 9.0309375 -9.3125 9.0625 C-6.08022678 9.06824116 -3.15065259 8.78766315 0 8 C0 5.36 0 2.72 0 0 Z " fill="#BC443C" transform="translate(237,324)"/>
<path d="M0 0 C0.33 0 0.66 0 1 0 C1.12117187 1.21558594 1.24234375 2.43117187 1.3671875 3.68359375 C1.53597078 5.26828117 1.70526816 6.8529139 1.875 8.4375 C1.95363281 9.23994141 2.03226563 10.04238281 2.11328125 10.86914062 C2.33845763 12.92170994 2.66222587 14.96293009 3 17 C3.66 17.33 4.32 17.66 5 18 C3.68 18.33 2.36 18.66 1 19 C-1.475 15.04 -1.475 15.04 -4 11 C-3.01 11 -2.02 11 -1 11 C-1 11.66 -1 12.32 -1 13 C-0.34 13 0.32 13 1 13 C0.67 12.34 0.34 11.68 0 11 C-0.07033769 9.12620395 -0.0843022 7.24998898 -0.0625 5.375 C-0.05347656 4.37210937 -0.04445312 3.36921875 -0.03515625 2.3359375 C-0.01775391 1.17964844 -0.01775391 1.17964844 0 0 Z " fill="#E3AC7C" transform="translate(170,252)"/>
<path d="M0 0 C0 0.66 0 1.32 0 2 C-0.99 2.495 -0.99 2.495 -2 3 C-1.34 3.433125 -0.68 3.86625 0 4.3125 C0.66 4.869375 1.32 5.42625 2 6 C2 6.99 2 7.98 2 9 C-0.31 9 -2.62 9 -5 9 C-4.34 8.34 -3.68 7.68 -3 7 C-4.65 7 -6.3 7 -8 7 C-8.33 6.01 -8.66 5.02 -9 4 C-2.25 0 -2.25 0 0 0 Z " fill="#E5A473" transform="translate(181,173)"/>
<path d="M0 0 C0.99 0 1.98 0 3 0 C3.33 1.65 3.66 3.3 4 5 C4.99 5.33 5.98 5.66 7 6 C7.33 7.65 7.66 9.3 8 11 C7.01 11.495 7.01 11.495 6 12 C6 11.01 6 10.02 6 9 C5.34 8.67 4.68 8.34 4 8 C3.67 8.99 3.34 9.98 3 11 C2.67 10.34 2.34 9.68 2 9 C0.68 9.33 -0.64 9.66 -2 10 C-1.67 9.46375 -1.34 8.9275 -1 8.375 C0.22699204 5.4608939 0.14233286 3.13132292 0 0 Z " fill="#F18F3A" transform="translate(322,302)"/>
<path d="M0 0 C0.66 0 1.32 0 2 0 C1.85913398 2.60452271 1.71251536 5.20850197 1.5625 7.8125 C1.50352539 8.91948242 1.50352539 8.91948242 1.44335938 10.04882812 C1.25618965 13.23071342 1.01279207 15.96162378 0 19 C-0.66 19 -1.32 19 -2 19 C-2 20.32 -2 21.64 -2 23 C-2.66 22.67 -3.32 22.34 -4 22 C-3.79503906 20.91460937 -3.59007812 19.82921875 -3.37890625 18.7109375 C-3.10673817 17.26563115 -2.83460458 15.8203183 -2.5625 14.375 C-2.42779297 13.66214844 -2.29308594 12.94929688 -2.15429688 12.21484375 C-1.38981729 8.15004987 -0.66330363 4.08285925 0 0 Z " fill="#BE5B5E" transform="translate(211,244)"/>
<path d="M0 0 C5.75843083 2.77993212 7.72761228 4.90586929 10 11 C10.6875 13.9375 10.6875 13.9375 11 16 C8.0253772 13.17015973 5.60002342 10.23934977 3.25 6.875 C2.63640625 6.00617188 2.0228125 5.13734375 1.390625 4.2421875 C0 2 0 2 0 0 Z " fill="#D98057" transform="translate(277,309)"/>
<path d="M0 0 C0.33 0 0.66 0 1 0 C1.45504688 8.94925538 1.45504688 8.94925538 -2 13 C-4.6875 14.3125 -4.6875 14.3125 -7 15 C-7 15.66 -7 16.32 -7 17 C-9.64 17 -12.28 17 -15 17 C-15 16.67 -15 16.34 -15 16 C-13.948125 15.773125 -12.89625 15.54625 -11.8125 15.3125 C-7.74484355 14.11274678 -5.6194975 12.41989951 -3 9 C-1.76958794 6.05491733 -0.82569109 3.0812375 0 0 Z " fill="#D68062" transform="translate(278,250)"/>
<path d="M0 0 C0.66 0 1.32 0 2 0 C3.14501953 1.46875 3.14501953 1.46875 4.3828125 3.5 C5.04990234 4.5828125 5.04990234 4.5828125 5.73046875 5.6875 C6.42076172 6.8321875 6.42076172 6.8321875 7.125 8 C7.82689453 9.1446875 7.82689453 9.1446875 8.54296875 10.3125 C9.7018143 12.20449273 10.85376747 14.10034852 12 16 C11.34 16.33 10.68 16.66 10 17 C5.9957657 13.50912907 4.37328935 11.35048061 4 6 C2.68 5.67 1.36 5.34 0 5 C0 3.35 0 1.7 0 0 Z " fill="#E9A86A" transform="translate(325,302)"/>
<path d="M0 0 C2.68756955 -0.02720824 5.37485798 -0.0469388 8.0625 -0.0625 C8.81466797 -0.07087891 9.56683594 -0.07925781 10.34179688 -0.08789062 C15.00633118 -0.10808341 19.39923173 0.22404041 24 1 C24 2.32 24 3.64 24 5 C23.27296875 4.79503906 22.5459375 4.59007812 21.796875 4.37890625 C14.51579832 2.42795109 7.52387929 1.38686613 0 1 C0 0.67 0 0.34 0 0 Z " fill="#CB7B5F" transform="translate(260,203)"/>
<path d="M0 0 C0.66 0 1.32 0 2 0 C2.28875 0.78375 2.5775 1.5675 2.875 2.375 C3.84912254 5.09671632 3.84912254 5.09671632 6 7 C7 8 8 9 9 10 C8.34 11.32 7.68 12.64 7 14 C6.01 13.67 5.02 13.34 4 13 C3.26919734 11.02253397 2.60578253 9.01927511 2 7 C1.34 6.01 0.68 5.02 0 4 C0 2.68 0 1.36 0 0 Z " fill="#E3713C" transform="translate(284,313)"/>
<path d="M0 0 C4.50607412 3.81283195 5.4416076 6.19271906 6 12 C6.66 12.33 7.32 12.66 8 13 C8 13.66 8 14.32 8 15 C7.34 15 6.68 15 6 15 C4.23828125 12.48046875 4.23828125 12.48046875 2.3125 9.1875 C1.66925781 8.10855469 1.02601563 7.02960938 0.36328125 5.91796875 C-1 3 -1 3 0 0 Z " fill="#E4925E" transform="translate(179,267)"/>
<path d="M0 0 C0.99 0.33 1.98 0.66 3 1 C2.01 2.1446875 2.01 2.1446875 1 3.3125 C-1.65074528 7.19593453 -1.23837744 10.86518497 -0.9453125 15.4140625 C-1 18 -1 18 -3 22 C-3 15.73 -3 9.46 -3 3 C-2.01 2.67 -1.02 2.34 0 2 C0 1.34 0 0.68 0 0 Z " fill="#E48A43" transform="translate(178,230)"/>
<path d="M0 0 C1 3 1 3 -0.1875 5.4375 C-1.93979049 7.91487622 -3.78315483 9.9360407 -6 12 C-6 10.68 -6 9.36 -6 8 C-6.66 8 -7.32 8 -8 8 C-7.67 7.01 -7.34 6.02 -7 5 C-5.824375 4.87625 -5.824375 4.87625 -4.625 4.75 C-1.85250896 4.27193661 -1.85250896 4.27193661 -0.6875 1.9375 C-0.460625 1.298125 -0.23375 0.65875 0 0 Z " fill="#B94853" transform="translate(197,283)"/>
<path d="M0 0 C0.33 0 0.66 0 1 0 C1.33 4.62 1.66 9.24 2 14 C2.66 14 3.32 14 4 14 C4.33 13.01 4.66 12.02 5 11 C4.67 13.31 4.34 15.62 4 18 C1 17 1 17 -0.1875 14.9375 C-1.54836164 10.01746176 -1.63359778 4.90079335 0 0 Z " fill="#E8C186" transform="translate(152,217)"/>
<path d="M0 0 C1.32 0.33 2.64 0.66 4 1 C4 1.99 4 2.98 4 4 C4.66 4 5.32 4 6 4 C5.67 6.31 5.34 8.62 5 11 C4.34 11 3.68 11 3 11 C2.67 9.02 2.34 7.04 2 5 C1.01 5.495 1.01 5.495 0 6 C-0.66 5.34 -1.32 4.68 -2 4 C-1.34 2.68 -0.68 1.36 0 0 Z " fill="#BF3E39" transform="translate(244,177)"/>
<path d="M0 0 C4.15289097 3.67371124 7.23378258 8.22366459 10 13 C10 13.66 10 14.32 10 15 C5.77489327 13.49103331 4.28177151 10.72689346 2 7 C1.34 6.01 0.68 5.02 0 4 C0 2.68 0 1.36 0 0 Z " fill="#E69F62" transform="translate(315,287)"/>
<path d="M0 0 C3.60654039 2.40436026 3.85452932 3.94679607 5 8 C5.33 8 5.66 8 6 8 C6 10.97 6 13.94 6 17 C5.01 17 4.02 17 3 17 C2.92652344 16.12988281 2.92652344 16.12988281 2.8515625 15.2421875 C2.40205201 10.54557786 1.63111529 6.45838178 0 2 C0 1.34 0 0.68 0 0 Z " fill="#B92536" transform="translate(268,240)"/>
<path d="M0 0 C0.99 0.33 1.98 0.66 3 1 C3.33 6.28 3.66 11.56 4 17 C3.34 16.01 2.68 15.02 2 14 C1.34 14 0.68 14 0 14 C0 9.38 0 4.76 0 0 Z " fill="#EBA14D" transform="translate(339,205)"/>
<path d="M0 0 C0.66 0.33 1.32 0.66 2 1 C-0.78062968 4.60451996 -3.78425086 7.78425086 -7 11 C-7.66 11.99 -8.32 12.98 -9 14 C-9.125 7.25 -9.125 7.25 -8 5 C-7.01 5 -6.02 5 -5 5 C-5 4.34 -5 3.68 -5 3 C-2.625 1.3125 -2.625 1.3125 0 0 Z " fill="#F1A864" transform="translate(171,203)"/>
<path d="M0 0 C-0.33 1.32 -0.66 2.64 -1 4 C-1.99 3.34 -2.98 2.68 -4 2 C-4.66 2 -5.32 2 -6 2 C-6.33 2.66 -6.66 3.32 -7 4 C-9.06640625 4.4140625 -9.06640625 4.4140625 -11.5625 4.625 C-12.38878906 4.69976562 -13.21507812 4.77453125 -14.06640625 4.8515625 C-15.02353516 4.92503906 -15.02353516 4.92503906 -16 5 C-15 2 -15 2 -13.0625 0.8125 C-8.70065683 -0.3447237 -4.4860872 -0.15679528 0 0 Z " fill="#E37A3B" transform="translate(198,171)"/>
<path d="M0 0 C5.87876496 -0.16032995 11.23388095 0.3907466 17 1.5 C18.16208984 1.71462891 18.16208984 1.71462891 19.34765625 1.93359375 C21.23295579 2.28272329 23.11665939 2.64045316 25 3 C25 3.33 25 3.66 25 4 C22.14509764 3.88519969 19.2915412 3.75847036 16.4375 3.625 C15.63763672 3.5940625 14.83777344 3.563125 14.01367188 3.53125 C9.03576917 3.28743436 4.73555351 2.56368612 0 1 C0 0.67 0 0.34 0 0 Z " fill="#DA9373" transform="translate(273,164)"/>
<path d="M0 0 C2.35145082 3.52717623 2.71009408 5.79636422 3 10 C2.0625 12.9375 2.0625 12.9375 1 15 C-0.32 15 -1.64 15 -3 15 C-2.67 13.68 -2.34 12.36 -2 11 C-1.34 11 -0.68 11 0 11 C0 7.37 0 3.74 0 0 Z " fill="#D35738" transform="translate(261,184)"/>
<path d="M0 0 C0.33 0 0.66 0 1 0 C2.12513633 8.01659634 2.09579384 15.92138585 2 24 C1.67 24 1.34 24 1 24 C-0.59105604 15.72913843 -1.2386744 8.35268278 0 0 Z " fill="#ECB87F" transform="translate(161,229)"/>
<path d="M0 0 C2.1875 0 2.1875 0 5 1 C6.96188534 3.50803179 8.49921743 6.19641043 10 9 C9.01 10.485 9.01 10.485 8 12 C7.01 11.67 6.02 11.34 5 11 C5 10.34 5 9.68 5 9 C5.66 9 6.32 9 7 9 C6.67 7.68 6.34 6.36 6 5 C5.34 5 4.68 5 4 5 C3.67 4.34 3.34 3.68 3 3 C2.01 3 1.02 3 0 3 C0 2.01 0 1.02 0 0 Z " fill="#D54F36" transform="translate(221,172)"/>
<path d="M0 0 C0.99 0.33 1.98 0.66 3 1 C3 1.66 3 2.32 3 3 C3.66 3 4.32 3 5 3 C5 4.65 5 6.3 5 8 C6.32 8.66 7.64 9.32 9 10 C9 10.66 9 11.32 9 12 C9.66 12.33 10.32 12.66 11 13 C10.34 13.66 9.68 14.32 9 15 C4.74184205 10.38699555 2.31471838 5.81912441 0 0 Z " fill="#CE705D" transform="translate(247,168)"/>
<path d="M0 0 C2.0625 0.4375 2.0625 0.4375 4 1 C4 1.66 4 2.32 4 3 C3.34 3 2.68 3 2 3 C2.33 3.99 2.66 4.98 3 6 C2.5625 8.6875 2.5625 8.6875 2 11 C0.68 10.01 -0.64 9.02 -2 8 C-1.125 1.125 -1.125 1.125 0 0 Z " fill="#C43533" transform="translate(250,190)"/>
<path d="M0 0 C0.99 0 1.98 0 3 0 C3 0.99 3 1.98 3 3 C3.99 3 4.98 3 6 3 C5.67 2.34 5.34 1.68 5 1 C6.32 1.33 7.64 1.66 9 2 C8.67 3.65 8.34 5.3 8 7 C5.125 6.3125 5.125 6.3125 2 5 C0.625 2.375 0.625 2.375 0 0 Z " fill="#CB4637" transform="translate(231,232)"/>
<path d="M0 0 C0.515625 0.2475 1.03125 0.495 1.5625 0.75 C1.5625 1.41 1.5625 2.07 1.5625 2.75 C0.840625 2.6675 0.11875 2.585 -0.625 2.5 C-4.30927675 2.82749127 -5.78862602 4.24828568 -8.4375 6.75 C-8.7675 7.41 -9.0975 8.07 -9.4375 8.75 C-10.0975 8.75 -10.7575 8.75 -11.4375 8.75 C-10.51142708 5.04570832 -9.24870807 3.32629659 -6.0625 1.375 C-2.4375 -0.25 -2.4375 -0.25 0 0 Z " fill="#EA883E" transform="translate(181.4375,181.25)"/>
<path d="M0 0 C0.45890625 0.40992188 0.9178125 0.81984375 1.390625 1.2421875 C2.00421875 1.78101563 2.6178125 2.31984375 3.25 2.875 C3.85328125 3.40867187 4.4565625 3.94234375 5.078125 4.4921875 C6.97418746 5.9797487 8.81290005 7.00322436 11 8 C8.69 8.66 6.38 9.32 4 10 C2 7 2 7 2 4 C1.34 4 0.68 4 0 4 C0 2.68 0 1.36 0 0 Z " fill="#CF6D5A" transform="translate(249,259)"/>
<path d="M0 0 C0.66 0.33 1.32 0.66 2 1 C1.21625 1.7425 0.4325 2.485 -0.375 3.25 C-2.56504531 5.54433318 -3.82731386 7.12158858 -5 10 C-6.32 9.67 -7.64 9.34 -9 9 C-6.78310162 4.56620325 -4.22271781 2.53363068 0 0 Z " fill="#EBA060" transform="translate(174,182)"/>
<path d="M0 0 C5.03985731 0.44469329 7.37634988 2.71343362 11 6 C9 7 9 7 7.08984375 6.58203125 C6.37957031 6.32808594 5.66929687 6.07414063 4.9375 5.8125 C4.22464844 5.57144531 3.51179687 5.33039063 2.77734375 5.08203125 C1 4 1 4 0.25390625 1.88671875 C0.17011719 1.26410156 0.08632812 0.64148438 0 0 Z " fill="#D18477" transform="translate(215,164)"/>
<path d="M0 0 C-1.49835228 4.66154042 -4.88463591 5.86610751 -9 8 C-9 5 -9 5 -6.75 2.3125 C-4 0 -4 0 0 0 Z " fill="#E59E62" transform="translate(326,271)"/>
<path d="M0 0 C0.66 0.33 1.32 0.66 2 1 C2 1.66 2 2.32 2 3 C2.66 3.33 3.32 3.66 4 4 C4.75 7.4375 4.75 7.4375 5 11 C4.34 11.66 3.68 12.32 3 13 C2.30329584 11.21189234 1.61788811 9.41937948 0.9375 7.625 C0.55464844 6.62726563 0.17179688 5.62953125 -0.22265625 4.6015625 C-1 2 -1 2 0 0 Z " fill="#BF514E" transform="translate(248,245)"/>
<path d="M0 0 C0.33 0 0.66 0 1 0 C1.36552803 1.41377782 1.71695495 2.83120576 2.0625 4.25 C2.25972656 5.03890625 2.45695312 5.8278125 2.66015625 6.640625 C3.01497267 9.10394822 2.76877544 10.65604132 2 13 C1.34 13 0.68 13 0 13 C-0.83796731 8.34462607 -1.0161692 4.62921525 0 0 Z " fill="#C4565C" transform="translate(257,204)"/>
<path d="M0 0 C0.87527344 0.28359375 1.75054687 0.5671875 2.65234375 0.859375 C3.96912109 1.26929688 3.96912109 1.26929688 5.3125 1.6875 C7.58984375 2.609375 7.58984375 2.609375 9.58984375 4.609375 C4.05327081 5.03526523 -0.30681608 3.514622 -5.41015625 1.609375 C-2.41015625 -0.390625 -2.41015625 -0.390625 0 0 Z " fill="#DE9663" transform="translate(301.41015625,168.390625)"/>
<path d="M0 0 C0.99 0 1.98 0 3 0 C5.59227518 4.86051596 5.18689553 9.65271133 5 15 C4.67 15 4.34 15 4 15 C3.87625 13.906875 3.7525 12.81375 3.625 11.6875 C3.24535199 7.92618198 3.24535199 7.92618198 1 5 C0.61500109 3.34450469 0.27206865 1.6777567 0 0 Z " fill="#BB5862" transform="translate(270,241)"/>
<path d="M0 0 C0.99 0 1.98 0 3 0 C3.33 1.32 3.66 2.64 4 4 C3.01 4 2.02 4 1 4 C0.67 5.98 0.34 7.96 0 10 C-0.99 9.67 -1.98 9.34 -3 9 C-2.01 6.03 -1.02 3.06 0 0 Z " fill="#C77067" transform="translate(233,168)"/>
<path d="M0 0 C0.99 0.33 1.98 0.66 3 1 C2.690625 1.78375 2.38125 2.5675 2.0625 3.375 C0.73664193 7.89851578 0.35188915 12.31431814 0 17 C-0.33 17 -0.66 17 -1 17 C-1.02684679 14.35409986 -1.04676357 11.70846904 -1.0625 9.0625 C-1.07087891 8.30775391 -1.07925781 7.55300781 -1.08789062 6.77539062 C-1.09652441 4.85005687 -1.05224333 2.92464419 -1 1 C-0.67 0.67 -0.34 0.34 0 0 Z " fill="#D78768" transform="translate(208,239)"/>
<path d="M0 0 C0.91007813 0.00902344 1.82015625 0.01804687 2.7578125 0.02734375 C3.45648438 0.03894531 4.15515625 0.05054688 4.875 0.0625 C4.875 0.3925 4.875 0.7225 4.875 1.0625 C1.905 1.0625 -1.065 1.0625 -4.125 1.0625 C-4.785 3.7025 -5.445 6.3425 -6.125 9.0625 C-6.785 8.4025 -7.445 7.7425 -8.125 7.0625 C-7.875 4 -7.875 4 -7.125 1.0625 C-4.60024538 -0.19987731 -2.81299534 -0.03606404 0 0 Z " fill="#CA473A" transform="translate(244.125,287.9375)"/>
<path d="M0 0 C1.60226148 4.00565371 0.47694566 7.08609399 -1 11 C-1.99 11.33 -2.98 11.66 -4 12 C-3.52494322 10.18641846 -3.04483958 8.37415821 -2.5625 6.5625 C-2.29566406 5.55316406 -2.02882812 4.54382813 -1.75390625 3.50390625 C-1 1 -1 1 0 0 Z " fill="#E3945B" transform="translate(179,221)"/>
<path d="M0 0 C3 1 3 1 3.94921875 2.84765625 C4.19285156 3.57855469 4.43648437 4.30945313 4.6875 5.0625 C4.93886719 5.79597656 5.19023437 6.52945313 5.44921875 7.28515625 C5.63097656 7.85105469 5.81273437 8.41695312 6 9 C2.34683329 7.75023244 1.21934164 7.32901247 -1 4 C-0.625 1.8125 -0.625 1.8125 0 0 Z " fill="#D67F66" transform="translate(219,224)"/>
<path d="M0 0 C1.09404518 3.33644983 0.89669485 5.7065788 0.1875 9.125 C0.01605469 9.99382812 -0.15539062 10.86265625 -0.33203125 11.7578125 C-1 14 -1 14 -3 16 C-2.57910004 10.39538469 -2.08386889 5.27913453 0 0 Z " fill="#ECB875" transform="translate(156,201)"/>
<path d="M0 0 C1.32 0.66 2.64 1.32 4 2 C3.67 2.66 3.34 3.32 3 4 C2.34 4 1.68 4 1 4 C1 4.99 1 5.98 1 7 C0.01 6.67 -0.98 6.34 -2 6 C-2.6875 3.9375 -2.6875 3.9375 -3 2 C-2.01 2 -1.02 2 0 2 C0 1.34 0 0.68 0 0 Z " fill="#E9883D" transform="translate(316,272)"/>
<path d="M0 0 C1.32 0.33 2.64 0.66 4 1 C4.33 3.31 4.66 5.62 5 8 C4.34 7.01 3.68 6.02 3 5 C2.34 5.66 1.68 6.32 1 7 C0 6 0 6 -0.0625 2.9375 C-0.041875 1.968125 -0.02125 0.99875 0 0 Z " fill="#CF6A60" transform="translate(235,242)"/>
<path d="M0 0 C0.99 0 1.98 0 3 0 C2.34 1.65 1.68 3.3 1 5 C0.34 5 -0.32 5 -1 5 C-1 5.99 -1 6.98 -1 8 C-2.875 8.625 -2.875 8.625 -5 9 C-5.66 8.34 -6.32 7.68 -7 7 C-5.68 7 -4.36 7 -3 7 C-2.690625 6.21625 -2.38125 5.4325 -2.0625 4.625 C-1 2 -1 2 0 0 Z " fill="#D9936C" transform="translate(195,277)"/>
<path d="M0 0 C3.1301299 6.26025981 3.0316328 10.23707385 2 17 C1.67 17 1.34 17 1 17 C0.67 11.39 0.34 5.78 0 0 Z " fill="#DF8759" transform="translate(293,215)"/>
<path d="M0 0 C3.02419525 0.58803797 6.01758453 1.22678118 9 2 C8.34 3.32 7.68 4.64 7 6 C2.32307692 4.52307692 2.32307692 4.52307692 0.6875 1.875 C0.460625 1.25625 0.23375 0.6375 0 0 Z " fill="#CF4937" transform="translate(237,252)"/>
<path d="M0 0 C1.37095624 3.69037278 0.60010967 5.70883835 -0.9375 9.25 C-1.31777344 10.14203125 -1.69804687 11.0340625 -2.08984375 11.953125 C-2.39019531 12.62859375 -2.69054687 13.3040625 -3 14 C-3.33 14 -3.66 14 -4 14 C-4.68041782 8.72676192 -2.24786337 4.60611289 0 0 Z " fill="#E8B075" transform="translate(342,242)"/>
<path d="M0 0 C2.79651501 1.46817038 3.43411431 2.40553901 4.5 5.3125 C0.72454612 4.22181332 -1.97043472 3.4041909 -4.5 0.3125 C-2.5 -0.6875 -2.5 -0.6875 0 0 Z " fill="#C9675A" transform="translate(229.5,232.6875)"/>
<path d="M0 0 C0.66 0.33 1.32 0.66 2 1 C1.34 3.97 0.68 6.94 0 10 C-0.66 9.34 -1.32 8.68 -2 8 C-1.69347955 5.0574037 -1.32728846 2.65457692 0 0 Z " fill="#E7A568" transform="translate(174,222)"/>
<path d="M0 0 C5.53846154 -0.36923077 5.53846154 -0.36923077 7.875 1.5 C8.24625 1.995 8.6175 2.49 9 3 C7.3125 3.6875 7.3125 3.6875 5 4 C2.25 2.625 2.25 2.625 0 1 C0 0.67 0 0.34 0 0 Z " fill="#E58A51" transform="translate(307,173)"/>
<path d="M0 0 C1.32 0.66 2.64 1.32 4 2 C4 2.66 4 3.32 4 4 C4.66 4 5.32 4 6 4 C5.67 4.66 5.34 5.32 5 6 C3.02 5.34 1.04 4.68 -1 4 C-0.67 2.68 -0.34 1.36 0 0 Z " fill="#F29842" transform="translate(331,315)"/>
<path d="M0 0 C0.66 0 1.32 0 2 0 C0.90931332 3.77545388 0.0916909 6.47043472 -3 9 C-3.25532751 5.93606987 -3.21861333 4.36766788 -1.625 1.6875 C-0.820625 0.8521875 -0.820625 0.8521875 0 0 Z " fill="#D88968" transform="translate(202,267)"/>
<path d="M0 0 C-1.0625 1.5 -1.0625 1.5 -3 3 C-6.6875 3.1875 -6.6875 3.1875 -10 3 C-6.74534559 -0.25465441 -4.4822096 -1.60078914 0 0 Z " fill="#DB754F" transform="translate(289,247)"/>
<path d="M0 0 C0.66 0.33 1.32 0.66 2 1 C2 3.31 2 5.62 2 8 C0.125 8.625 0.125 8.625 -2 9 C-2.66 8.34 -3.32 7.68 -4 7 C-3.01 7 -2.02 7 -1 7 C-0.67 4.69 -0.34 2.38 0 0 Z " fill="#E77137" transform="translate(293,239)"/>
<path d="M0 0 C6.47556391 0.61090226 6.47556391 0.61090226 8.9375 2.4375 C10 4 10 4 10 6 C6.66666667 4.33333333 3.33333333 2.66666667 0 1 C0 0.67 0 0.34 0 0 Z " fill="#D27271" transform="translate(234,238)"/>
<path d="M0 0 C1.32 0.66 2.64 1.32 4 2 C4 2.99 4 3.98 4 5 C2.35 5.33 0.7 5.66 -1 6 C-0.67 4.02 -0.34 2.04 0 0 Z " fill="#C86249" transform="translate(216,227)"/>
<path d="M0 0 C2.475 0.495 2.475 0.495 5 1 C5 2.98 5 4.96 5 7 C2.47411298 4.63707344 1.11179163 3.33537489 0 0 Z " fill="#D5734D" transform="translate(272,302)"/>
<path d="M0 0 C1.98 0 3.96 0 6 0 C4.0373772 2.04795423 2.5722693 2.94976638 -0.26953125 3.19921875 C-2.51954383 3.18858877 -4.75385562 3.12958525 -7 3 C-7 2.67 -7 2.34 -7 2 C-4.69 2 -2.38 2 0 2 C0 1.34 0 0.68 0 0 Z " fill="#BE696F" transform="translate(265,261)"/>
<path d="M0 0 C1.98 0 3.96 0 6 0 C6.33 0.99 6.66 1.98 7 3 C6.34 3 5.68 3 5 3 C5 3.66 5 4.32 5 5 C3.0625 4.1875 3.0625 4.1875 1 3 C0.67 2.01 0.34 1.02 0 0 Z " fill="#BF5359" transform="translate(252,258)"/>
<path d="M0 0 C0.33 0 0.66 0 1 0 C1 2.97 1 5.94 1 9 C0.01 9 -0.98 9 -2 9 C-1.125 1.125 -1.125 1.125 0 0 Z " fill="#A72B3B" transform="translate(273,248)"/>
<path d="M0 0 C1.65 0 3.3 0 5 0 C5 1.32 5 2.64 5 4 C3.02 3.34 1.04 2.68 -1 2 C-0.67 1.34 -0.34 0.68 0 0 Z " fill="#DA805B" transform="translate(279,204)"/>
<path d="M0 0 C1.35432675 1.31200404 2.68733482 2.64631404 4 4 C4 4.33 4 4.66 4 5 C2.35 5 0.7 5 -1 5 C-1.33 3.68 -1.66 2.36 -2 1 C-1.34 0.67 -0.68 0.34 0 0 Z " fill="#CB6349" transform="translate(260,198)"/>
<path d="M0 0 C2.97 0.495 2.97 0.495 6 1 C5.34 2.32 4.68 3.64 4 5 C2.68 5 1.36 5 0 5 C0 3.35 0 1.7 0 0 Z " fill="#E7823D" transform="translate(178,263)"/>
<path d="M0 0 C1.98 0.99 1.98 0.99 4 2 C3.01 2.33 2.02 2.66 1 3 C1 5.97 1 8.94 1 12 C0.67 12 0.34 12 0 12 C0 8.04 0 4.08 0 0 Z " fill="#C26B68" transform="translate(242,169)"/>
<path d="M0 0 C2.31 0.33 4.62 0.66 7 1 C6.67 1.99 6.34 2.98 6 4 C4.35 3.67 2.7 3.34 1 3 C0.67 2.01 0.34 1.02 0 0 Z " fill="#DC7B47" transform="translate(186,280)"/>
<path d="M0 0 C2 4 2 4 2 7 C1.34 7 0.68 7 0 7 C0 7.66 0 8.32 0 9 C-0.66 9 -1.32 9 -2 9 C-1.34 6.03 -0.68 3.06 0 0 Z " fill="#E19267" transform="translate(293,232)"/>
</svg>
